<?xml version="1.0" standalone="no"?>
<!DOCTYPE svg PUBLIC "-//W3C//DTD SVG 20010904//EN"
 "http://www.w3.org/TR/2001/REC-SVG-20010904/DTD/svg10.dtd">
<svg version="1.0" xmlns="http://www.w3.org/2000/svg"
 width="930.000000pt" height="930.000000pt" viewBox="0 0 930.000000 930.000000"
 preserveAspectRatio="xMidYMid meet">
<metadata>
Created by potrace 1.14, written by Peter Selinger 2001-2017
</metadata>
<g transform="translate(0.000000,930.000000) scale(0.100000,-0.100000)"
fill="#000000" stroke="none">
<path d="M2498 7284 c-2 -2 -31 -6 -64 -9 -61 -6 -67 -7 -169 -24 -96 -16
-115 -20 -216 -46 -100 -26 -261 -78 -291 -95 -10 -6 -22 -10 -28 -10 -24 0
-304 -144 -410 -210 -171 -108 -299 -210 -445 -355 -256 -253 -422 -492 -568
-815 -77 -171 -157 -440 -183 -617 -3 -26 -8 -57 -10 -68 -16 -86 -19 -311
-19 -1325 0 -1091 1 -1158 18 -1214 53 -170 157 -310 299 -399 115 -72 233
-105 377 -105 322 0 604 232 671 553 10 46 13 329 15 1170 1 611 5 1124 9
1140 3 17 11 50 16 75 6 25 12 54 15 65 12 63 90 255 117 290 4 6 31 46 60 90
104 160 308 335 489 418 87 40 210 83 263 91 20 3 55 10 78 16 24 5 122 8 218
6 188 -3 285 -21 432 -80 210 -84 417 -244 538 -416 14 -19 27 -37 31 -40 18
-17 107 -187 134 -260 27 -71 35 -98 55 -200 18 -90 19 -158 19 -1193 1 -1241
-2 -1183 77 -1346 79 -162 222 -285 403 -349 68 -24 90 -27 216 -27 126 0 148
3 216 27 114 40 195 92 281 180 61 61 87 98 122 171 79 161 76 105 76 1344 1
1037 2 1103 20 1193 99 496 471 871 970 979 115 24 335 28 458 6 106 -18 270
-73 357 -118 188 -99 349 -244 465 -417 95 -144 165 -317 185 -460 4 -24 10
-49 13 -55 4 -5 8 -514 8 -1130 2 -1243 -2 -1177 68 -1330 31 -68 102 -165
155 -213 126 -114 294 -179 463 -180 121 0 207 20 317 74 162 80 281 217 347
400 l29 79 0 1165 c0 1044 -3 1227 -20 1335 -3 17 -7 42 -9 57 -28 176 -98
426 -157 555 -10 24 -19 45 -19 48 0 9 -103 215 -135 270 -33 56 -153 237
-181 274 -145 184 -349 388 -504 503 -47 35 -87 66 -88 71 -2 4 -7 7 -12 7 -4
0 -34 18 -66 39 -246 163 -608 312 -889 366 -22 5 -44 9 -50 10 -27 6 -158 25
-220 32 -160 18 -509 9 -670 -17 -98 -16 -115 -20 -222 -45 -440 -105 -851
-331 -1196 -658 -59 -56 -109 -103 -110 -104 -2 -1 -45 39 -97 89 -230 221
-494 401 -770 522 -36 15 -79 34 -96 42 -133 58 -422 134 -610 160 -27 3 -60
8 -74 11 -33 6 -497 13 -502 7z"/>
</g>
</svg>
